<svg width="24" height="24" viewBox="0 0 24 24" fill="none" xmlns="http://www.w3.org/2000/svg">
<rect x="0.25" y="0.25" width="23.5" height="23.5" rx="11.75" fill="#000505"/>
<rect x="0.25" y="0.25" width="23.5" height="23.5" rx="11.75" stroke="white" stroke-width="0.5"/>
<path d="M9.28467 15.625V14.131L11.7687 12.151C12.1917 11.818 12.4707 11.557 12.6237 11.377C12.7767 11.197 12.8577 10.999 12.8577 10.792C12.8577 10.396 12.5607 10.036 12.0117 10.036C11.4807 10.036 11.1117 10.306 10.9047 10.846L9.35667 10.189C9.52767 9.622 9.85167 9.19 10.3377 8.902C10.8327 8.605 11.3817 8.461 12.0027 8.461C12.8037 8.461 13.4427 8.677 13.9107 9.118C14.3787 9.55 14.6127 10.09 14.6127 10.747C14.6127 11.17 14.4867 11.557 14.2437 11.89C14.0007 12.223 13.5957 12.601 13.0197 13.042L11.5977 14.131H14.6487V15.625H9.28467Z" fill="white"/>
</svg>
