<svg width="24" height="24" viewBox="0 0 24 24" fill="none" xmlns="http://www.w3.org/2000/svg">
<rect x="0.25" y="0.25" width="23.5" height="23.5" rx="11.75" fill="#000505"/>
<rect x="0.25" y="0.25" width="23.5" height="23.5" rx="11.75" stroke="white" stroke-width="0.5"/>
<path d="M11.9279 15.733C10.6589 15.733 9.65093 15.193 9.25493 14.14L10.7129 13.402C10.9559 13.933 11.3609 14.194 11.9099 14.194C12.4949 14.194 12.8459 13.915 12.8459 13.519C12.8459 13.078 12.5129 12.817 11.9099 12.817H11.2709V11.323H11.8649C12.3959 11.323 12.7199 11.071 12.7199 10.648C12.7199 10.279 12.4049 9.991 11.8649 9.991C11.3879 9.991 11.0459 10.243 10.8209 10.738L9.34493 10.027C9.53393 9.514 9.85793 9.127 10.3349 8.866C10.8119 8.596 11.3339 8.461 11.9189 8.461C12.6299 8.461 13.2329 8.641 13.7189 8.992C14.2049 9.343 14.4479 9.838 14.4479 10.459C14.4479 11.17 14.1149 11.674 13.4489 11.971C14.2139 12.286 14.5919 12.826 14.5919 13.591C14.5919 14.239 14.3399 14.761 13.8359 15.148C13.3319 15.535 12.6929 15.733 11.9279 15.733Z" fill="white"/>
</svg>
