<svg width="24" height="24" viewBox="0 0 24 24" fill="none" xmlns="http://www.w3.org/2000/svg">
<g clip-path="url(#clip0_234_1829)">
<path d="M11.8001 11.2418C9.53007 10.6518 8.80007 10.0418 8.80007 9.09177C8.80007 8.00177 9.81007 7.24177 11.5001 7.24177C13.2801 7.24177 13.9401 8.09177 14.0001 9.34177H16.2101C16.1401 7.62177 15.0901 6.04177 13.0001 5.53177V3.34177H10.0001V5.50177C8.06007 5.92177 6.50007 7.18177 6.50007 9.11177C6.50007 11.4218 8.41007 12.5718 11.2001 13.2418C13.7001 13.8418 14.2001 14.7218 14.2001 15.6518C14.2001 16.3418 13.7101 17.4418 11.5001 17.4418C9.44007 17.4418 8.63007 16.5218 8.52007 15.3418H6.32007C6.44007 17.5318 8.08007 18.7618 10.0001 19.1718V21.3418H13.0001V19.1918C14.9501 18.8218 16.5001 17.6918 16.5001 15.6418C16.5001 12.8018 14.0701 11.8318 11.8001 11.2418Z" fill="white"/>
</g>
<defs>
<clipPath id="clip0_234_1829">
<rect width="24" height="24" fill="white" transform="translate(0 0.342865)"/>
</clipPath>
</defs>
</svg>
