<svg width="95" height="24" viewBox="0 0 95 24" fill="none" xmlns="http://www.w3.org/2000/svg">
<g clip-path="url(#clip0_502_5392)">
<path d="M46.6625 16.9463C46.7189 17.0843 46.7471 17.2308 46.7471 17.3772C46.7386 17.5462 46.6653 17.7068 46.5469 17.8279C46.3749 17.9969 46.1352 18.0814 45.8955 18.0588C45.5938 18.0588 45.3259 17.8645 45.2328 17.5744L44.119 14.9099H38.2567L37.1626 17.5688C37.0695 17.8561 36.8045 18.0504 36.5 18.0532C36.2603 18.0757 36.0206 17.9913 35.8486 17.8223C35.7302 17.7011 35.6597 17.5406 35.6484 17.3716C35.6484 17.2251 35.6766 17.0787 35.733 16.9407L40.1036 6.59541C40.301 6.1194 40.6394 5.88281 41.1188 5.88281H41.288C41.7504 5.88281 42.0888 6.1194 42.3031 6.59541L46.6568 16.9491L46.6625 16.9463ZM43.5325 13.4847L41.2005 7.88258L38.8686 13.4876H43.5325V13.4847Z" fill="white"/>
<path d="M57.5616 5.8877C57.7703 5.8877 57.9705 5.97219 58.1171 6.11865C58.2778 6.2623 58.3681 6.46791 58.3653 6.68478V13.484C58.3653 14.9824 57.8267 16.1569 56.7467 17.0103C55.8021 17.7736 54.6178 18.1764 53.4053 18.1454C52.0884 18.1454 50.9746 17.768 50.0666 17.0103C49.0007 16.1428 48.4706 14.9683 48.4706 13.484V6.68478C48.4706 6.47636 48.5552 6.27638 48.7019 6.12992C48.84 5.97501 49.0402 5.8877 49.2489 5.8877C49.4576 5.8877 49.6578 5.97219 49.8044 6.11865C49.9623 6.26512 50.0497 6.47073 50.0469 6.68478V13.5262C50.0469 14.5486 50.3965 15.3457 51.0987 15.9203C52.4634 16.9822 54.3753 16.9822 55.74 15.9203C56.4393 15.3317 56.7918 14.5346 56.7918 13.5262V6.68478C56.789 6.47636 56.868 6.27638 57.0146 6.12992C57.1556 5.97501 57.353 5.8877 57.5616 5.8877V5.8877Z" fill="white"/>
<path d="M71.2458 17.284C71.2458 17.4868 71.1697 17.684 71.0259 17.8304C70.8793 17.9853 70.6734 18.0698 70.4591 18.0614C70.2505 18.0698 70.0446 17.9938 69.8923 17.853C69.7429 17.7037 69.6611 17.4981 69.6724 17.2868V16.7629C69.6724 15.8391 69.5709 15.1631 69.3679 14.735C69.1789 14.321 68.8885 13.9633 68.5219 13.6957C68.1638 13.4366 67.6562 13.307 66.9992 13.307H63.4435V17.284C63.4435 17.4896 63.3617 17.6868 63.2123 17.8304C63.0628 17.9825 62.857 18.067 62.6455 18.0614C62.2197 18.0557 61.8757 17.7121 61.87 17.2868V6.76975C61.87 6.56132 61.9546 6.36134 62.1013 6.21488C62.2394 6.05997 62.4396 5.97266 62.6483 5.97266H66.6609C68.2287 5.97266 69.4214 6.31064 70.2335 6.98662C70.978 7.58655 71.3953 8.50475 71.353 9.45957C71.353 10.1215 71.1584 10.7665 70.7975 11.3185C70.3914 11.9241 69.7852 12.3663 69.0859 12.5662C69.9121 12.7719 70.5127 13.369 70.8934 14.3604C71.1528 15.0448 71.274 15.7715 71.2515 16.501V17.284H71.2458ZM66.5622 11.8058C67.5294 11.8058 68.3048 11.6199 68.8941 11.2509C69.4722 10.8988 69.8134 10.2595 69.7767 9.5835C69.7767 8.89907 69.5455 8.38082 69.0831 8.03157C68.536 7.64007 67.6675 7.44291 66.4776 7.44291H63.4463V11.8086H66.5622V11.8058Z" fill="white"/>
<path d="M81.6533 6.28673C81.7773 6.04732 82.0227 5.89523 82.2934 5.88678C82.7107 5.85861 83.0716 6.17125 83.0998 6.5881C83.0998 6.605 83.0998 6.62472 83.0998 6.64162C83.1055 6.82188 83.0547 6.99932 82.9532 7.1486L78.8363 12.8944V17.2883C78.8279 17.7136 78.4867 18.0572 78.0609 18.0628C77.8522 18.0628 77.652 17.9783 77.5054 17.8319C77.3503 17.6938 77.2629 17.4939 77.2629 17.2854V12.8916L73.146 7.14579C73.0586 6.99087 73.0134 6.81625 73.0191 6.6388C73.0191 6.44446 73.0896 6.25857 73.2193 6.11492C73.3716 5.95156 73.5859 5.86706 73.8086 5.88396C74.0822 5.89241 74.3331 6.04451 74.4713 6.28391L78.0637 11.5087L81.6561 6.28391L81.6533 6.28673Z" fill="white"/>
<path d="M93.4772 15.8323C93.5984 15.7844 93.7281 15.7619 93.855 15.7704C94.0242 15.7704 94.185 15.8436 94.2977 15.9703C94.419 16.0886 94.4867 16.252 94.4867 16.421C94.5036 16.7055 94.3457 16.973 94.0863 17.097C93.542 17.4068 92.9668 17.6603 92.369 17.8462C91.6556 18.0574 90.914 18.156 90.1696 18.1391C89.3518 18.1475 88.5397 18.0039 87.7728 17.7194C87.0594 17.4547 86.4108 17.0378 85.8722 16.5027C84.7246 15.3845 84.1493 13.872 84.1493 11.9708C84.1493 10.0696 84.7246 8.55712 85.8722 7.43894C86.9776 6.34611 88.4157 5.80251 90.1809 5.80251C90.9253 5.78561 91.6697 5.89264 92.3803 6.11797C92.8597 6.27288 93.3277 6.46722 93.7789 6.69536C94.0017 6.79676 94.2047 6.94041 94.3767 7.11503C94.4585 7.23615 94.498 7.37979 94.4923 7.52344C94.4923 7.69243 94.4246 7.85579 94.3034 7.97409C94.1962 8.09802 94.0383 8.17125 93.8748 8.17406C93.7423 8.1797 93.6097 8.15716 93.4856 8.1121C93.0345 7.86424 92.5608 7.66426 92.0673 7.51499C91.4836 7.35444 90.8773 7.28121 90.2711 7.29529C89.6 7.28403 88.9345 7.40796 88.3113 7.66145C87.7587 7.88677 87.2624 8.22758 86.8507 8.65851C86.0809 9.49785 85.703 10.6019 85.7143 11.9736C85.7284 13.3453 86.1063 14.4494 86.8507 15.2887C87.691 16.1985 88.8471 16.6519 90.3162 16.6519C90.9027 16.6632 91.4864 16.59 92.0504 16.4322C92.5438 16.283 93.0232 16.083 93.4772 15.8351V15.8323Z" fill="white"/>
<path d="M29.1912 13.3899L15.7408 0.377307C15.2163 -0.129675 14.3817 -0.129675 13.8572 0.377307L9.20738 4.87537L6.24378 7.74827L3.34786 10.5479L3.3112 10.5846L0.406823 13.3927C-0.128937 13.9137 -0.143036 14.7672 0.378625 15.3051C0.457579 15.384 0.544992 15.4544 0.638045 15.5136L14.0884 23.7943C14.5227 24.0647 15.0725 24.0647 15.5068 23.7943L28.96 15.5136C29.5973 15.1221 29.7946 14.2884 29.4027 13.6546C29.3435 13.5589 29.273 13.4715 29.1912 13.3927V13.3899ZM14.799 22.2395L1.89567 14.2968L4.02461 12.2351L13.9954 18.4005C14.2351 18.5498 14.5142 18.6287 14.7962 18.6287V16.9106L5.27942 11.0268L6.93181 9.42695L13.9982 13.7588C14.2379 13.9053 14.5142 13.9842 14.7962 13.9842V12.2604L8.18662 8.20456L9.89541 6.55123L14.0884 9.15374C14.2999 9.28894 14.5481 9.35935 14.799 9.35935V7.61308L11.1474 5.34574L14.799 1.81094L27.7024 14.2968L14.799 22.2339V22.2395Z" fill="url(#paint0_linear_502_5392)"/>
<path d="M22.7996 13.0061C22.5543 12.609 22.0354 12.4851 21.6378 12.7273L14.8055 16.9127V18.6336C15.0875 18.6336 15.361 18.5548 15.6007 18.4083L22.5204 14.1694C22.918 13.9243 23.0449 13.4061 22.7996 13.0061V13.0061Z" fill="#89ACF1"/>
<path d="M18.7382 10.8197C18.4928 10.4226 17.9712 10.3015 17.5736 10.5465L14.8046 12.2646V13.9884C15.0894 13.9884 15.3657 13.9067 15.6054 13.7574L18.4647 11.9858C18.8622 11.7407 18.9835 11.2197 18.7382 10.8225V10.8197Z" fill="#FF7575"/>
<path d="M18.0623 6.63588C17.8198 6.23592 17.301 6.10918 16.9006 6.3514L14.8055 7.62168V9.37358C15.0536 9.37358 15.2961 9.30599 15.5076 9.17642L17.7775 7.79912C18.1751 7.5569 18.302 7.03865 18.0595 6.63869L18.0623 6.63588Z" fill="#74CDB0"/>
</g>
<defs>
<linearGradient id="paint0_linear_502_5392" x1="-0.00331552" y1="11.9967" x2="29.6043" y2="11.9967" gradientUnits="userSpaceOnUse">
<stop stop-color="#FFE614"/>
<stop offset="1" stop-color="#FFCC00"/>
</linearGradient>
<clipPath id="clip0_502_5392">
<rect width="94.4995" height="24" fill="white"/>
</clipPath>
</defs>
</svg>
