<svg width="65" height="26" viewBox="0 0 65 26" fill="none" xmlns="http://www.w3.org/2000/svg">
<g clip-path="url(#clip0_591_2477)">
<path d="M3.56919 5.91797H0.720825V19.8749H3.56919V5.91797Z" fill="white"/>
<path d="M9.74241 0.600586H6.89404V11.2345H9.74241V0.600586Z" fill="white"/>
<path d="M9.74229 14.5596H6.89392V25.1934H9.74229V14.5596Z" fill="#31D891"/>
<path d="M15.9126 5.91797H13.0643V19.8749H15.9126V5.91797Z" fill="#31D891"/>
<path d="M31.9961 19.8661V13.6681H24.8737V19.8661H22.9453V5.91504H24.8737V11.8775H31.9961V5.91504H33.9256V19.8661H31.9961Z" fill="white"/>
<path d="M44.3196 17.1697C43.7885 18.8424 42.2726 20.1604 40.0708 20.1604C37.5328 20.1604 35.3089 18.3112 35.3089 15.1039C35.3089 12.1326 37.4535 10.1055 39.8343 10.1055C42.7471 10.1055 44.38 12.1123 44.38 15.0647C44.381 15.2621 44.3679 15.4593 44.3408 15.6548H37.2151C37.2544 17.3468 38.4747 18.5298 40.068 18.5298C41.6027 18.5298 42.3703 17.6839 42.7244 16.6207L44.3196 17.1697ZM42.4487 14.1593C42.4095 12.8015 41.5244 11.7393 39.8522 11.7393C38.2981 11.7393 37.3534 12.9394 37.2741 14.1593H42.4487Z" fill="white"/>
<path d="M48.1666 14.4549L50.7244 14.0814C51.2956 14.0022 51.4528 13.7071 51.4528 13.3733C51.4528 12.449 50.8429 11.6814 49.4068 11.6814C48.1081 11.6814 47.3797 12.4882 47.2611 13.5905L45.4908 13.177C45.6872 11.3665 47.3207 10.1084 49.3671 10.1084C52.1996 10.1084 53.3024 11.722 53.3024 13.5716V18.3118C53.2963 18.8323 53.3356 19.3523 53.42 19.8659H51.6104C51.5381 19.4435 51.505 19.0151 51.5118 18.5866C51.0988 19.2564 50.1541 20.161 48.4621 20.161C46.5337 20.161 45.2935 18.8231 45.2935 17.3285C45.2935 15.6356 46.5337 14.6909 48.1666 14.4549ZM51.4528 15.8126V15.3801L48.5598 15.8126C47.7729 15.9311 47.1828 16.3829 47.1828 17.2289C47.1828 17.937 47.7728 18.6059 48.7175 18.6059C50.2325 18.6069 51.4528 17.8785 51.4528 15.8126Z" fill="white"/>
<path d="M55.0471 23.6055V10.4018H56.8378V11.878C57.3495 10.9338 58.4712 10.1855 60.0059 10.1855C62.8384 10.1855 64.3548 12.3699 64.3548 15.1245C64.3548 17.9386 62.7209 20.1224 59.9469 20.1224C58.4905 20.1224 57.3892 19.4341 56.8784 18.5872V23.6055H55.0471ZM59.6712 11.819C57.9792 11.819 56.8576 13.2352 56.8576 15.1235C56.8576 17.0714 57.9792 18.4687 59.6712 18.4687C61.3835 18.4687 62.4655 17.0714 62.4655 15.1235C62.4655 13.2352 61.4033 11.819 59.6712 11.819Z" fill="white"/>
</g>
<defs>
<clipPath id="clip0_591_2477">
<rect width="64.394" height="25" fill="white" transform="translate(0.197021 0.5)"/>
</clipPath>
</defs>
</svg>
