<svg width="24" height="25" viewBox="0 0 24 25" fill="none" xmlns="http://www.w3.org/2000/svg">
<g clip-path="url(#clip0_234_1867)">
<path d="M21 8.34286C19.55 8.34286 18.74 9.78287 19.07 10.8529L15.52 14.4129C15.22 14.3229 14.78 14.3229 14.48 14.4129L11.93 11.8629C12.27 10.7929 11.46 9.34286 10 9.34286C8.55 9.34286 7.73 10.7829 8.07 11.8629L3.51 16.4129C2.44 16.0829 1 16.8929 1 18.3429C1 19.4429 1.9 20.3429 3 20.3429C4.45 20.3429 5.26 18.9029 4.93 17.8329L9.48 13.2729C9.78 13.3629 10.22 13.3629 10.52 13.2729L13.07 15.8229C12.73 16.8929 13.54 18.3429 15 18.3429C16.45 18.3429 17.27 16.9029 16.93 15.8229L20.49 12.2729C21.56 12.6029 23 11.7929 23 10.3429C23 9.24286 22.1 8.34286 21 8.34286Z" fill="white"/>
<path d="M15 9.34286L15.94 7.27286L18 6.34286L15.94 5.41287L15 3.34286L14.08 5.41287L12 6.34286L14.08 7.27286L15 9.34286Z" fill="white"/>
<path d="M3.5 11.3429L4 9.34286L6 8.84286L4 8.34286L3.5 6.34286L3 8.34286L1 8.84286L3 9.34286L3.5 11.3429Z" fill="white"/>
</g>
<defs>
<clipPath id="clip0_234_1867">
<rect width="24" height="24" fill="white" transform="translate(0 0.342865)"/>
</clipPath>
</defs>
</svg>
