<svg width="32" height="32" viewBox="0 0 32 32" fill="none" xmlns="http://www.w3.org/2000/svg">
<path d="M10.4777 26H6.33036V12.6473H10.4777V26ZM8.40179 10.8259C7.07589 10.8259 6 9.72768 6 8.40179C6 7.76479 6.25304 7.15389 6.70347 6.70347C7.15389 6.25304 7.76479 6 8.40179 6C9.03878 6 9.64968 6.25304 10.1001 6.70347C10.5505 7.15389 10.8036 7.76479 10.8036 8.40179C10.8036 9.72768 9.72768 10.8259 8.40179 10.8259ZM25.9955 26H21.8571V19.5C21.8571 17.9509 21.8259 15.9643 19.7009 15.9643C17.5446 15.9643 17.2143 17.6473 17.2143 19.3884V26H13.0714V12.6473H17.0491V14.4688H17.1071C17.6607 13.4196 19.0134 12.3125 21.0313 12.3125C25.2277 12.3125 26 15.0759 26 18.6652V26H25.9955Z" fill="#fff"/>
</svg>
