<svg width="24" height="25" viewBox="0 0 24 25" fill="none" xmlns="http://www.w3.org/2000/svg">
<g clip-path="url(#clip0_517_5405)">
<path d="M12.4998 7.025C14.2798 7.025 14.9398 7.875 14.9998 9.125H17.2098C17.1398 7.405 16.0898 5.825 13.9998 5.315V3.125H10.9998V5.285C10.4698 5.405 9.96981 5.585 9.51981 5.825L10.9898 7.295C11.3998 7.125 11.8998 7.025 12.4998 7.025ZM5.32981 4.185L4.05981 5.455L7.49981 8.895C7.49981 10.975 9.05981 12.105 11.4098 12.805L14.9198 16.315C14.5798 16.795 13.8698 17.225 12.4998 17.225C10.4398 17.225 9.62981 16.305 9.51981 15.125H7.31981C7.43981 17.315 9.07981 18.545 10.9998 18.955V21.125H13.9998V18.975C14.9598 18.795 15.8198 18.425 16.4498 17.855L18.6698 20.075L19.9398 18.805L5.32981 4.185Z" fill="white"/>
</g>
<defs>
<clipPath id="clip0_517_5405">
<rect width="24" height="24" fill="white" transform="translate(0 0.125)"/>
</clipPath>
</defs>
</svg>
