<svg width="24" height="25" viewBox="0 0 24 25" fill="none" xmlns="http://www.w3.org/2000/svg">
<g clip-path="url(#clip0_234_1837)">
<path fill-rule="evenodd" clip-rule="evenodd" d="M16.6699 13.4723C18.0399 14.4023 18.9999 15.6623 18.9999 17.3423V20.3423H22.9999V17.3423C22.9999 15.1623 19.4299 13.8723 16.6699 13.4723Z" fill="white"/>
<path d="M9 12.3423C11.2091 12.3423 13 10.5514 13 8.34225C13 6.13312 11.2091 4.34225 9 4.34225C6.79086 4.34225 5 6.13312 5 8.34225C5 10.5514 6.79086 12.3423 9 12.3423Z" fill="white"/>
<path fill-rule="evenodd" clip-rule="evenodd" d="M14.9999 12.3423C17.2099 12.3423 18.9999 10.5523 18.9999 8.34225C18.9999 6.13225 17.2099 4.34225 14.9999 4.34225C14.5299 4.34225 14.0899 4.44225 13.6699 4.58225C14.4999 5.61225 14.9999 6.92225 14.9999 8.34225C14.9999 9.76225 14.4999 11.0723 13.6699 12.1023C14.0899 12.2423 14.5299 12.3423 14.9999 12.3423Z" fill="white"/>
<path fill-rule="evenodd" clip-rule="evenodd" d="M9 13.3423C6.33 13.3423 1 14.6823 1 17.3423V20.3423H17V17.3423C17 14.6823 11.67 13.3423 9 13.3423Z" fill="white"/>
</g>
<defs>
<clipPath id="clip0_234_1837">
<rect width="24" height="24" fill="white" transform="translate(0 0.342865)"/>
</clipPath>
</defs>
</svg>
