<svg width="24" height="25" viewBox="0 0 24 25" fill="none" xmlns="http://www.w3.org/2000/svg">
<g clip-path="url(#clip0_517_5406)">
<path d="M21.9998 4.875H19.9998C19.4498 4.875 18.9998 5.325 18.9998 5.875V14.875C18.9998 15.425 19.4498 15.875 19.9998 15.875H21.9998V4.875ZM2.16976 11.995C2.05976 12.245 1.99976 12.515 1.99976 12.795V13.875C1.99976 14.975 2.89976 15.875 3.99976 15.875H9.49976L8.57976 20.525C8.52976 20.745 8.55976 20.985 8.65976 21.185C8.88976 21.635 9.17976 22.045 9.53976 22.405L9.99976 22.875L16.4098 16.465C16.7898 16.085 16.9998 15.575 16.9998 15.045V7.215C16.9998 5.925 15.9498 4.875 14.6598 4.875H6.55976C5.84976 4.875 5.19976 5.245 4.83976 5.845L2.16976 11.995V11.995Z" fill="white"/>
</g>
<defs>
<clipPath id="clip0_517_5406">
<rect width="24" height="24" fill="white" transform="translate(0 0.875)"/>
</clipPath>
</defs>
</svg>
